# xmcd CD database file
#
# Track frame offsets:
#	150
#	23113
#	30443
#	55522
#	75992
#	96388
#	110382
#	128872
#	144997
#	163404
#	179854
#	195347
#	206791
#	234152
#	254807
#	266959
#	293220
#	311024
#
# Disc length: 4318 seconds
#
# Revision: 4
# Processed by: cddbd v1.5.2PL0 Copyright (c) Steve Scherf et al.
# Submitted via: CDex 1.51
#
DISCID=0610dc12
DTITLE=John Denver - Take Me Home Disc 3
DYEAR=2001
DGENRE=Country
TTITLE0=Sunshine On My Shoulders
TTITLE1=Deal With The Ladies
TTITLE2=Amazon
TTITLE3=Eclipse
TTITLE4=Earth Day Every Day (Celebrate)
TTITLE5=Ancient Rhymes
TTITLE6=Tenderly Calling
TTITLE7=Falling Leaves (The Refugees)
TTITLE8=Islands
TTITLE9=Children Of The Universe
TTITLE10=Postcard From Paris
TTITLE11=In A Faraway Land
TTITLE12=A Little Further North
TTITLE13=Sing Australia
TTITLE14=Alaska And Me
TTITLE15=Stoneheaven Sunset
TTITLE16=Potter's Wheel (Live)
TTITLE17=The Flower That Shattered The Stone (Reprise)
EXTD=YEAR: 2001
EXTT0=
EXTT1=
EXTT2=
EXTT3=
EXTT4=
EXTT5=
EXTT6=
EXTT7=
EXTT8=
EXTT9=
EXTT10=
EXTT11=
EXTT12=
EXTT13=
EXTT14=
EXTT15=
EXTT16=
EXTT17=
PLAYORDER=
